<svg viewBox="0 0 1080 1080" fill="none" xmlns="http://www.w3.org/2000/svg">      <defs>  <filter id="filter" x="-20%" y="-20%" width="140%" height="140%" filterUnits="objectBoundingBox" primitiveUnits="userSpaceOnUse" color-interpolation-filters="linearRGB">    <feMorphology operator="dilate" radius="20 20" in="SourceAlpha" result="morphology"/>    <feFlood flood-color="#ffffff" flood-opacity="1" result="flood"/>    <feComposite in="flood" in2="morphology" operator="in" result="composite"/>    <feMerge result="merge">          <feMergeNode in="composite" result="mergeNode"/>      <feMergeNode in="SourceGraphic" result="mergeNode1"/>      </feMerge>  </filter></defs>      <g id="notion-avatar" filter="url(#filter)">        <g id="notion-avatar-face" fill="#ffffff">      <!--?xml version="1.0" encoding="UTF-8"?-->    <title>Face/ 3</title>    <g id="Face/-3" stroke="none" stroke-width="1" fill-rule="evenodd" stroke-linecap="round" stroke-linejoin="round">        <path d="M532,379 C664.54834,379 772,486.45166 772,619 C772,751.54834 704.54834,899 532,899 C402.610491,899 332.317998,816.086314 305.249034,718.717925 C264.225797,715.291578 232,680.909158 232,639 C232,599.134956 261.158843,566.080325 299.312086,560.00055 C325.599297,455.979213 419.809919,379 532,379 Z M295.858895,624.545187 L304.141105,655.454813" id="Path" stroke="#000000" stroke-width="24"/>    </g>    </g><g id="notion-avatar-nose">      <!--?xml version="1.0" encoding="UTF-8"?-->    <title>Nose/ 10</title>    <g id="Nose/-10" stroke="none" stroke-width="1" fill="none" fill-rule="evenodd" stroke-linecap="round" stroke-linejoin="round">        <path d="M631,694.380659 C660.333333,687.46022 678,677.333333 684,664 C693,644 637.033407,606.392531 660.161467,579" id="Path" stroke="#000000" stroke-width="16"/>    </g>    </g><g id="notion-avatar-mouth">      <g id="Mouth/ 15"><g id="Group"><path id="Path" d="M505.348 782.386C505.348 782.386 499.053 772.522 503.446 759.4C507.839 746.278 519.439 740.299 519.439 740.299" stroke="black" stroke-width="6" stroke-linecap="round" stroke-linejoin="round"/><path id="Path_2" fill-rule="evenodd" clip-rule="evenodd" d="M545.613 766.395L615.22 752.181L643.717 751.83L664.424 746.139L688.54 748.846C688.54 748.846 671.891 755.298 639.869 759.23C607.847 763.161 545.613 766.395 545.613 766.395Z" stroke="black" stroke-width="12" stroke-linecap="round" stroke-linejoin="round"/><path id="Path_3" d="M611 803C611 803 626.338 804.035 634 803C641.662 801.965 648 798 648 798" stroke="black" stroke-width="6" stroke-linecap="round" stroke-linejoin="round"/></g></g>    </g><g id="notion-avatar-eyes">      <!--?xml version="1.0" encoding="UTF-8"?-->    <title>Eyes/ 0</title>    <g id="Eyes/-0" stroke="none" stroke-width="1" fill="none" fill-rule="evenodd">        <path d="M570,516 C583.254834,516 594,526.745166 594,540 C594,553.254834 583.254834,564 570,564 C556.745166,564 546,553.254834 546,540 C546,526.745166 556.745166,516 570,516 Z M708,516 C721.254834,516 732,526.745166 732,540 C732,553.254834 721.254834,564 708,564 C694.745166,564 684,553.254834 684,540 C684,526.745166 694.745166,516 708,516 Z" id="Combined-Shape" fill="#000000"/>    </g>    </g><g id="notion-avatar-eyebrows">      <g id="Eyebrows/ 15"><g id="Group"><path id="Path" fill-rule="evenodd" clip-rule="evenodd" d="M622.289 506.124C622.289 506.124 622.95 493.517 619.376 491.698C615.802 489.88 558.683 477.099 542.118 478.134C525.552 479.169 502.752 494.15 502.752 494.15C502.752 494.15 526.26 485.069 547.179 487.167C568.098 489.265 622.289 506.124 622.289 506.124Z" fill="black" stroke="black" stroke-width="4" stroke-linecap="round" stroke-linejoin="round"/><path id="Path_2" fill-rule="evenodd" clip-rule="evenodd" d="M654.711 506.124C654.711 506.124 654.05 493.517 657.624 491.698C661.198 489.88 718.317 477.099 734.882 478.134C751.448 479.169 774.248 494.15 774.248 494.15C774.248 494.15 750.74 485.069 729.821 487.167C708.902 489.265 654.711 506.124 654.711 506.124Z" fill="black" stroke="black" stroke-width="4" stroke-linecap="round" stroke-linejoin="round"/></g></g>    </g><g id="notion-avatar-glasses">      <g id="Glasses/ 14"><g id="Group"><g id="Combined Shape"><path fill-rule="evenodd" clip-rule="evenodd" d="M712.472 491.158C747.209 486.19 789.963 490.537 796.198 496.746C802.433 502.956 802.214 540.353 783.712 560.845C772.077 573.732 708.381 574.538 681.986 566.918C673.397 564.438 666.052 553.396 659.199 543.093C652.566 533.122 646.394 523.843 640 523.69C633.575 523.537 627.416 532.89 620.768 542.986C613.965 553.317 606.65 564.425 598.014 566.918C571.62 574.538 509.918 575.725 498.289 562.845C479.787 542.353 477.568 502.956 483.803 496.746C490.038 490.537 532.791 486.19 567.528 491.158C602.266 496.125 617.492 499.934 624.533 502.029C628.93 503.338 639.435 503.892 639.435 503.892L640 503.905L640.566 503.912C646.104 503.965 651.071 503.338 655.468 502.029C662.509 499.934 677.735 496.125 712.472 491.158ZM498.054 502.71C478.459 512.404 494.273 546.047 502.977 555.74C511.682 565.434 588.217 563.153 598.905 558.021C609.594 552.889 624.642 527.651 616.626 513.395C608.61 499.14 526.556 492.446 498.054 502.71ZM777.023 555.74C785.728 546.047 801.542 512.404 781.947 502.71C753.444 492.446 671.391 499.14 663.375 513.395C655.358 527.651 670.407 552.889 681.095 558.021C691.784 563.153 768.319 565.434 777.023 555.74Z" fill="black"/><path d="M712.472 491.158L712.755 493.137L712.472 491.158ZM783.712 560.845L785.196 562.186L783.712 560.845ZM681.986 566.918L681.431 568.84L681.986 566.918ZM659.199 543.093L657.534 544.201L659.199 543.093ZM640 523.69L640.048 521.691L640 523.69ZM620.768 542.986L619.098 541.886L620.768 542.986ZM598.014 566.918L598.569 568.84L598.014 566.918ZM498.289 562.845L499.773 561.505L498.289 562.845ZM483.803 496.746L482.392 495.329L483.803 496.746ZM567.528 491.158L567.245 493.137L567.528 491.158ZM624.533 502.029L625.103 500.112V500.112L624.533 502.029ZM639.435 503.892L639.33 505.889C639.35 505.89 639.371 505.891 639.391 505.892L639.435 503.892ZM640 503.905L639.957 505.904C639.962 505.904 639.967 505.904 639.973 505.904L640 503.905ZM640.566 503.912L640.539 505.912L640.547 505.912L640.566 503.912ZM655.468 502.029L656.038 503.946L655.468 502.029ZM502.977 555.74L501.489 557.077H501.489L502.977 555.74ZM498.054 502.71L497.376 500.829C497.305 500.854 497.235 500.884 497.167 500.918L498.054 502.71ZM616.626 513.395L614.883 514.376V514.376L616.626 513.395ZM781.947 502.71L782.833 500.918C782.765 500.884 782.696 500.854 782.624 500.829L781.947 502.71ZM777.023 555.74L778.511 557.077L777.023 555.74ZM663.375 513.395L661.631 512.415L663.375 513.395ZM797.609 495.329C796.526 494.251 794.856 493.383 792.951 492.652C790.994 491.901 788.574 491.216 785.803 490.602C780.257 489.373 773.145 488.392 765.18 487.766C749.252 486.515 729.729 486.669 712.189 489.178L712.755 493.137C729.952 490.678 749.175 490.522 764.867 491.754C772.712 492.371 779.628 493.331 784.937 494.507C787.594 495.096 789.808 495.731 791.518 496.387C793.281 497.063 794.31 497.689 794.786 498.164L797.609 495.329ZM785.196 562.186C794.821 551.526 799.599 536.606 801.216 523.688C802.027 517.209 802.054 511.146 801.465 506.26C801.17 503.819 800.716 501.629 800.107 499.808C799.51 498.026 798.708 496.424 797.609 495.329L794.786 498.164C795.246 498.622 795.801 499.546 796.314 501.078C796.813 502.571 797.221 504.482 797.493 506.74C798.038 511.252 798.024 516.984 797.247 523.191C795.687 535.648 791.105 549.672 782.227 559.505L785.196 562.186ZM681.431 568.84C694.926 572.736 717.693 574.434 738.467 573.57C748.876 573.137 758.879 572.058 767.051 570.255C771.137 569.354 774.81 568.263 777.868 566.958C780.9 565.664 783.466 564.102 785.196 562.186L782.227 559.505C781.049 560.81 779.079 562.092 776.298 563.279C773.542 564.455 770.124 565.481 766.19 566.349C758.322 568.084 748.569 569.146 738.301 569.573C717.719 570.429 695.441 568.721 682.541 564.997L681.431 568.84ZM657.534 544.201C660.944 549.327 664.564 554.775 668.428 559.247C672.266 563.688 676.566 567.435 681.431 568.84L682.541 564.997C678.817 563.922 675.15 560.907 671.455 556.632C667.786 552.387 664.307 547.162 660.864 541.986L657.534 544.201ZM639.953 525.69C642.234 525.744 644.872 527.485 648.012 531.035C651.073 534.495 654.193 539.179 657.534 544.201L660.864 541.986C657.572 537.036 654.29 532.094 651.008 528.384C647.805 524.763 644.16 521.789 640.048 521.691L639.953 525.69ZM622.438 544.086C625.788 539 628.906 534.272 631.964 530.821C635.107 527.276 637.712 525.636 639.953 525.69L640.048 521.691C635.863 521.591 632.177 524.551 628.971 528.168C625.682 531.879 622.396 536.876 619.098 541.886L622.438 544.086ZM598.569 568.84C603.461 567.427 607.765 563.658 611.596 559.194C615.453 554.699 619.053 549.226 622.438 544.086L619.098 541.886C615.679 547.076 612.221 552.323 608.561 556.589C604.874 560.885 601.204 563.916 597.46 564.997L598.569 568.84ZM496.804 564.186C498.537 566.104 501.075 567.636 504.062 568.877C507.072 570.128 510.674 571.141 514.669 571.947C522.661 573.56 532.419 574.387 542.579 574.569C562.866 574.932 585.109 572.726 598.569 568.84L597.46 564.997C584.525 568.731 562.72 570.928 542.65 570.569C532.631 570.39 523.134 569.575 515.461 568.026C511.624 567.252 508.291 566.303 505.598 565.184C502.882 564.055 500.948 562.806 499.773 561.505L496.804 564.186ZM482.392 495.329C481.26 496.456 480.493 498.132 479.957 499.968C479.407 501.851 479.037 504.124 478.84 506.658C478.446 511.728 478.73 518.035 479.794 524.753C481.914 538.142 487.194 553.541 496.804 564.186L499.773 561.505C490.882 551.657 485.801 537.111 483.745 524.127C482.721 517.658 482.463 511.67 482.828 506.967C483.011 504.614 483.346 502.63 483.796 501.09C484.26 499.503 484.787 498.589 485.214 498.164L482.392 495.329ZM567.812 489.178C550.271 486.669 530.749 486.515 514.821 487.766C506.856 488.392 499.744 489.373 494.198 490.602C491.427 491.216 489.007 491.901 487.049 492.652C485.145 493.383 483.474 494.251 482.392 495.329L485.214 498.164C485.69 497.689 486.72 497.063 488.482 496.387C490.192 495.731 492.407 495.096 495.063 494.507C500.372 493.331 507.289 492.371 515.134 491.754C530.826 490.522 550.048 490.678 567.245 493.137L567.812 489.178ZM625.103 500.112C617.933 497.979 602.602 494.153 567.812 489.178L567.245 493.137C601.929 498.098 617.05 501.889 623.963 503.946L625.103 500.112ZM639.435 503.892C639.54 501.895 639.541 501.895 639.541 501.895C639.541 501.895 639.54 501.895 639.54 501.895C639.54 501.895 639.54 501.895 639.539 501.895C639.538 501.895 639.537 501.895 639.534 501.895C639.53 501.894 639.523 501.894 639.513 501.893C639.495 501.892 639.466 501.891 639.428 501.889C639.352 501.885 639.24 501.878 639.095 501.869C638.804 501.852 638.382 501.826 637.862 501.79C636.821 501.718 635.388 501.609 633.822 501.46C630.624 501.156 627.087 500.703 625.103 500.112L623.963 503.946C626.375 504.664 630.29 505.142 633.443 505.442C635.053 505.596 636.522 505.707 637.588 505.78C638.121 505.817 638.554 505.844 638.855 505.862C639.006 505.871 639.123 505.878 639.204 505.882C639.244 505.885 639.275 505.886 639.296 505.888C639.307 505.888 639.315 505.889 639.32 505.889C639.323 505.889 639.325 505.889 639.327 505.889C639.328 505.889 639.328 505.889 639.329 505.889C639.329 505.889 639.329 505.889 639.329 505.889C639.329 505.889 639.33 505.889 639.435 503.892ZM640.044 501.905L639.479 501.893L639.391 505.892L639.957 505.904L640.044 501.905ZM640.594 501.912L640.028 501.905L639.973 505.904L640.539 505.912L640.594 501.912ZM654.897 500.112C650.726 501.353 645.963 501.964 640.586 501.912L640.547 505.912C646.244 505.967 651.415 505.322 656.038 503.946L654.897 500.112ZM712.189 489.178C677.399 494.153 662.067 497.979 654.897 500.112L656.038 503.946C662.95 501.889 678.071 498.098 712.755 493.137L712.189 489.178ZM504.465 554.404C500.351 549.822 494.368 539.293 491.848 528.76C490.592 523.508 490.242 518.439 491.276 514.196C492.289 510.035 494.63 506.635 498.941 504.503L497.167 500.918C491.68 503.632 488.65 508.073 487.389 513.249C486.149 518.343 486.623 524.109 487.958 529.691C490.622 540.826 496.899 551.965 501.489 557.077L504.465 554.404ZM598.039 556.218C596.98 556.727 594.863 557.289 591.735 557.823C588.673 558.345 584.83 558.812 580.454 559.201C571.706 559.979 560.925 560.44 550.197 560.44C539.462 560.44 528.836 559.978 520.383 558.923C516.152 558.395 512.522 557.725 509.718 556.911C506.81 556.067 505.149 555.166 504.465 554.404L501.489 557.077C502.982 558.739 505.616 559.886 508.602 560.753C511.691 561.649 515.552 562.351 519.888 562.893C528.567 563.976 539.375 564.44 550.197 564.44C561.027 564.44 571.928 563.975 580.809 563.185C585.247 562.79 589.205 562.312 592.408 561.766C595.545 561.23 598.158 560.599 599.771 559.824L598.039 556.218ZM614.883 514.376C618.399 520.629 616.989 529.71 612.969 538.28C610.993 542.493 608.454 546.426 605.781 549.6C603.084 552.801 600.354 555.107 598.039 556.218L599.771 559.824C602.8 558.37 605.96 555.596 608.84 552.177C611.744 548.729 614.47 544.5 616.591 539.979C620.763 531.084 622.869 520.417 618.369 512.415L614.883 514.376ZM498.732 504.592C505.576 502.127 515.812 500.633 527.578 500.043C539.302 499.455 552.39 499.771 564.85 500.851C577.318 501.931 589.094 503.769 598.21 506.201C602.772 507.418 606.606 508.768 609.507 510.213C612.475 511.691 614.183 513.131 614.883 514.376L618.369 512.415C617.065 510.096 614.455 508.209 611.29 506.632C608.059 505.023 603.944 503.591 599.241 502.336C589.827 499.824 577.804 497.958 565.195 496.866C552.577 495.772 539.306 495.449 527.378 496.048C515.492 496.644 504.784 498.161 497.376 500.829L498.732 504.592ZM781.06 504.503C785.37 506.635 787.712 510.035 788.725 514.196C789.758 518.439 789.409 523.508 788.152 528.76C785.632 539.293 779.65 549.822 775.535 554.404L778.511 557.077C783.101 551.965 789.378 540.826 792.043 529.691C793.378 524.109 793.852 518.343 792.611 513.249C791.351 508.073 788.321 503.632 782.833 500.918L781.06 504.503ZM665.118 514.376C665.818 513.131 667.526 511.691 670.494 510.213C673.395 508.768 677.228 507.418 681.791 506.201C690.907 503.769 702.682 501.931 715.151 500.851C727.611 499.771 740.698 499.455 752.422 500.043C764.189 500.633 774.425 502.127 781.269 504.592L782.624 500.829C775.217 498.161 764.508 496.644 752.623 496.048C740.695 495.449 727.424 495.772 714.806 496.866C702.196 497.958 690.174 499.824 680.76 502.336C676.057 503.591 671.942 505.023 668.71 506.632C665.545 508.209 662.935 510.096 661.631 512.415L665.118 514.376ZM681.961 556.218C679.646 555.107 676.917 552.801 674.22 549.6C671.546 546.426 669.007 542.493 667.031 538.28C663.011 529.71 661.601 520.629 665.118 514.376L661.631 512.415C657.132 520.417 659.238 531.084 663.41 539.979C665.53 544.5 668.257 548.729 671.16 552.177C674.041 555.596 677.2 558.37 680.23 559.824L681.961 556.218ZM775.535 554.404C774.852 555.166 773.19 556.067 770.283 556.911C767.479 557.725 763.849 558.395 759.618 558.923C751.165 559.978 740.538 560.44 729.803 560.44C719.075 560.44 708.294 559.979 699.546 559.201C695.171 558.812 691.327 558.345 688.265 557.823C685.137 557.289 683.02 556.727 681.961 556.218L680.23 559.824C681.843 560.599 684.455 561.23 687.593 561.766C690.796 562.312 694.753 562.79 699.192 563.185C708.073 563.975 718.973 564.44 729.803 564.44C740.626 564.44 751.433 563.976 760.113 562.893C764.448 562.351 768.309 561.649 771.398 560.753C774.384 559.886 777.019 558.739 778.511 557.077L775.535 554.404Z" fill="black"/></g><path id="Path" fill-rule="evenodd" clip-rule="evenodd" d="M488 509L293 541L289 550L488 530V509Z" fill="black" stroke="black" stroke-width="4" stroke-linecap="round" stroke-linejoin="round"/></g></g>    </g><g id="notion-avatar-hair">      <g id="Hairstyle/ 34"><g id="Shape"><path fill-rule="evenodd" clip-rule="evenodd" d="M279.001 719L312.001 727L363.001 804L362.012 804.138C354.394 805.17 349.724 805.124 348.001 804C335.11 795.586 327.667 781.235 316.001 769C301.896 754.207 289.563 737.54 279.001 719ZM555.001 245C595.484 249.465 630.917 268.728 660.824 294.427L663.31 294.901C703.949 302.792 748.312 311.503 768.001 340C793.334 376.666 803.668 419.666 799.001 469C782.061 429.032 756.001 397 740.033 393.568C760.909 430.158 768.001 461.184 768.001 473C768.001 512 751.334 552.666 744.001 578C744.001 543.333 736.334 485.333 691.001 442C637.019 390.399 541.818 418 502.001 418C471.276 418 487.967 464.879 460.621 499.411C464.677 513 473.001 533 494.001 552C461.561 551.983 448.728 532.541 438.816 511.856L435.487 512.41C432.89 512.847 430.302 513.31 427.911 513.879C431.102 526.945 438.217 542.546 449.256 560.682C434.736 548.356 424.268 534.345 417.851 518.648C417.503 519.067 417.217 519.517 417.001 520C393.365 572.739 393.001 593 381.001 655H366.001L364.629 651.851C349.93 618.257 338.054 595.64 329.001 584L328.16 582.929C314.41 565.583 299.959 555.5 288.001 559L287.246 559.23L286.711 559.403C277.924 562.306 258.241 571.727 244.001 589C238.75 595.369 233.084 607.369 227.001 625L226.066 623.594L224.701 621.517C212.007 602.071 205.107 587.565 204.001 578C200.119 544.442 196.001 434 232.001 383C268.001 332 279.908 338.533 308.001 332C332.001 251.333 417.202 229.801 555.001 245Z" fill="black"/><path d="M279.001 719L280.414 713.169C278.088 712.605 275.648 713.478 274.208 715.391C272.768 717.303 272.602 719.889 273.787 721.97L279.001 719ZM312.001 727L317.003 723.687C316.167 722.425 314.885 721.525 313.414 721.169L312.001 727ZM363.001 804L363.829 809.942C365.87 809.658 367.623 808.346 368.47 806.467C369.318 804.588 369.141 802.405 368.003 800.687L363.001 804ZM362.012 804.138L362.818 810.083C362.826 810.082 362.833 810.081 362.84 810.08L362.012 804.138ZM348.001 804L351.28 798.975L348.001 804ZM316.001 769L311.658 773.14L316.001 769ZM555.001 245L554.343 250.964L555.001 245ZM660.824 294.427L656.914 298.977C657.709 299.661 658.669 300.124 659.699 300.32L660.824 294.427ZM663.31 294.901L664.453 289.011C664.447 289.01 664.441 289.009 664.435 289.008L663.31 294.901ZM768.001 340L763.064 343.41L768.001 340ZM799.001 469L793.477 471.341C794.549 473.871 797.202 475.349 799.917 474.929C802.632 474.51 804.715 472.3 804.974 469.565L799.001 469ZM740.033 393.568L741.294 387.702C738.98 387.205 736.59 388.114 735.192 390.024C733.794 391.933 733.649 394.486 734.821 396.542L740.033 393.568ZM744.001 578H738.001C738.001 580.988 740.2 583.521 743.158 583.94C746.117 584.36 748.933 582.539 749.764 579.668L744.001 578ZM691.001 442L686.855 446.337L691.001 442ZM460.621 499.411L455.918 495.686C454.702 497.22 454.312 499.251 454.872 501.127L460.621 499.411ZM494.001 552L493.998 558C496.48 558.001 498.706 556.474 499.599 554.158C500.492 551.842 499.867 549.216 498.026 547.551L494.001 552ZM438.816 511.856L444.227 509.263C443.073 506.854 440.465 505.499 437.83 505.937L438.816 511.856ZM435.487 512.41L434.501 506.492L434.491 506.493L435.487 512.41ZM427.911 513.879L426.521 508.042C424.967 508.412 423.625 509.386 422.792 510.749C421.959 512.112 421.703 513.751 422.082 515.302L427.911 513.879ZM449.256 560.682L445.373 565.256C447.617 567.162 450.913 567.157 453.152 565.245C455.391 563.333 455.912 560.078 454.381 557.563L449.256 560.682ZM417.851 518.648L423.405 516.377C422.607 514.427 420.845 513.038 418.763 512.718C416.68 512.397 414.582 513.193 413.235 514.814L417.851 518.648ZM417.001 520L411.526 517.546L417.001 520ZM381.001 655V661C383.875 661 386.345 658.962 386.892 656.14L381.001 655ZM366.001 655L360.5 657.397C361.454 659.585 363.614 661 366.001 661V655ZM364.629 651.851L370.129 649.455L370.126 649.446L364.629 651.851ZM329.001 584L333.737 580.316C333.731 580.309 333.726 580.302 333.72 580.295L329.001 584ZM328.16 582.929L332.879 579.223C332.873 579.216 332.868 579.209 332.862 579.202L328.16 582.929ZM288.001 559L286.316 553.241C286.294 553.248 286.273 553.254 286.251 553.26L288.001 559ZM287.246 559.23L285.497 553.49C285.465 553.5 285.432 553.51 285.4 553.521L287.246 559.23ZM286.711 559.403L284.865 553.694C284.853 553.698 284.841 553.702 284.829 553.706L286.711 559.403ZM244.001 589L239.371 585.183L244.001 589ZM227.001 625L222.004 628.322C223.268 630.222 225.499 631.241 227.762 630.951C230.026 630.662 231.929 629.113 232.673 626.957L227.001 625ZM226.066 623.594L221.053 626.89C221.058 626.899 221.064 626.908 221.07 626.916L226.066 623.594ZM224.701 621.517L219.676 624.796C219.68 624.802 219.683 624.807 219.687 624.813L224.701 621.517ZM204.001 578L209.961 577.31L204.001 578ZM308.001 332L309.36 337.844C311.46 337.355 313.137 335.778 313.752 333.711L308.001 332ZM277.587 724.831L310.587 732.831L313.414 721.169L280.414 713.169L277.587 724.831ZM306.999 730.313L357.999 807.313L368.003 800.687L317.003 723.687L306.999 730.313ZM362.173 798.057L361.185 798.195L362.84 810.08L363.829 809.942L362.173 798.057ZM361.206 798.192C357.526 798.691 354.776 798.897 352.855 798.878C351.895 798.869 351.278 798.803 350.926 798.739C350.508 798.662 350.77 798.642 351.28 798.975L344.721 809.024C346.094 809.92 347.585 810.327 348.765 810.543C350.012 810.771 351.361 810.864 352.737 810.877C355.486 810.904 358.88 810.617 362.818 810.083L361.206 798.192ZM351.28 798.975C345.669 795.313 341.073 790.248 336.229 784.187C331.547 778.33 326.417 771.23 320.343 764.859L311.658 773.14C317.251 779.006 321.676 785.199 326.855 791.679C331.871 797.956 337.442 804.273 344.721 809.024L351.28 798.975ZM320.343 764.859C306.59 750.435 294.545 734.165 284.214 716.03L273.787 721.97C284.58 740.916 297.202 757.979 311.658 773.14L320.343 764.859ZM554.343 250.964C593.293 255.26 627.633 273.817 656.914 298.977L664.735 289.876C634.201 263.638 597.675 243.67 555.659 239.036L554.343 250.964ZM659.699 300.32L662.185 300.795L664.435 289.008L661.949 288.533L659.699 300.32ZM662.166 300.791C682.581 304.755 703.359 308.827 721.474 315.367C739.612 321.914 754.253 330.658 763.064 343.41L772.937 336.589C762.059 320.845 744.675 310.984 725.549 304.08C706.401 297.167 684.677 292.938 664.453 289.011L662.166 300.791ZM763.064 343.41C787.504 378.784 797.577 420.339 793.028 468.435L804.974 469.565C809.758 418.994 799.164 374.549 772.937 336.589L763.064 343.41ZM804.525 466.658C795.865 446.224 784.849 427.751 773.858 413.86C768.364 406.917 762.794 401.013 757.432 396.564C752.172 392.2 746.662 388.856 741.294 387.702L738.772 399.435C741.387 399.996 745.123 401.944 749.77 405.799C754.315 409.571 759.312 414.816 764.447 421.306C774.713 434.28 785.198 451.807 793.477 471.341L804.525 466.658ZM734.821 396.542C755.396 432.603 762.001 462.589 762.001 473H774.001C774.001 459.78 766.422 427.714 745.244 390.595L734.821 396.542ZM762.001 473C762.001 491.707 757.995 511.019 752.972 529.011C750.466 537.988 747.728 546.565 745.138 554.537C742.566 562.455 740.106 569.878 738.237 576.331L749.764 579.668C751.563 573.455 753.936 566.294 756.551 558.244C759.149 550.247 761.953 541.47 764.53 532.238C769.674 513.814 774.001 493.293 774.001 473H762.001ZM750.001 578C750.001 542.675 742.223 482.662 695.147 437.663L686.855 446.337C730.445 488.004 738.001 543.992 738.001 578H750.001ZM695.147 437.663C666.431 410.214 627.142 404.194 591.113 404.65C573.018 404.879 555.434 406.75 540.048 408.533C524.45 410.341 511.51 412 502.001 412V424C512.401 424 526.292 422.208 541.43 420.454C556.779 418.674 573.835 416.87 591.265 416.649C626.286 416.205 661.589 422.185 686.855 446.337L695.147 437.663ZM502.001 412C497.387 412 493.279 412.884 489.706 414.784C486.116 416.693 483.424 419.437 481.377 422.612C477.47 428.667 475.667 436.747 474.152 444.622C470.968 461.163 468.483 479.818 455.918 495.686L465.325 503.136C480.105 484.471 482.947 462.421 485.935 446.89C487.506 438.728 489 432.93 491.46 429.117C492.596 427.357 493.855 426.169 495.34 425.379C496.842 424.58 498.933 424 502.001 424V412ZM454.872 501.127C459.137 515.415 467.926 536.5 489.975 556.449L498.026 547.551C478.075 529.5 470.218 510.585 466.371 497.695L454.872 501.127ZM494.004 546C479.135 545.992 469.248 541.59 461.914 535.166C454.373 528.559 449.115 519.463 444.227 509.263L433.405 514.449C438.43 524.935 444.544 535.902 454.007 544.192C463.678 552.664 476.427 557.991 493.998 558L494.004 546ZM437.83 505.937L434.501 506.492L436.473 518.329L439.802 517.774L437.83 505.937ZM434.491 506.493C431.879 506.933 429.122 507.423 426.521 508.042L429.301 519.716C431.483 519.196 433.901 518.762 436.483 518.327L434.491 506.493ZM422.082 515.302C425.479 529.209 432.934 545.407 444.13 563.802L454.381 557.563C443.5 539.686 436.725 524.681 433.74 512.455L422.082 515.302ZM453.139 556.108C439.261 544.327 429.414 531.079 423.405 516.377L412.297 520.918C419.121 537.611 430.211 552.385 445.373 565.256L453.139 556.108ZM413.235 514.814C412.565 515.621 411.981 516.531 411.526 517.546L422.476 522.454C422.466 522.477 422.457 522.492 422.453 522.498C422.449 522.505 422.452 522.499 422.466 522.482L413.235 514.814ZM411.526 517.546C387.534 571.08 387.043 592.207 375.11 653.86L386.892 656.14C398.959 593.792 399.197 574.397 422.476 522.454L411.526 517.546ZM381.001 649H366.001V661H381.001V649ZM371.501 652.603L370.129 649.455L359.128 654.248L360.5 657.397L371.501 652.603ZM370.126 649.446C355.436 615.872 343.303 592.616 333.737 580.316L324.265 587.683C332.805 598.664 344.424 620.642 359.132 654.256L370.126 649.446ZM333.72 580.295L332.879 579.223L323.441 586.634L324.282 587.705L333.72 580.295ZM332.862 579.202C325.755 570.236 318.21 562.806 310.58 558.054C302.978 553.319 294.567 550.827 286.316 553.241L289.686 564.758C293.393 563.674 298.187 564.473 304.237 568.24C310.26 571.992 316.815 578.275 323.458 586.656L332.862 579.202ZM286.251 553.26L285.497 553.49L288.996 564.969L289.75 564.739L286.251 553.26ZM285.4 553.521L284.865 553.694L288.558 565.112L289.093 564.939L285.4 553.521ZM284.829 553.706C275.318 556.848 254.535 566.79 239.371 585.183L248.63 592.816C261.947 576.664 280.531 567.764 288.594 565.1L284.829 553.706ZM239.371 585.183C233.375 592.457 227.425 605.373 221.329 623.043L232.673 626.957C238.742 609.365 244.126 598.28 248.63 592.816L239.371 585.183ZM231.997 621.678L231.063 620.272L221.07 626.916L222.004 628.322L231.997 621.678ZM231.08 620.298L229.714 618.221L219.687 624.813L221.053 626.89L231.08 620.298ZM229.725 618.237C223.467 608.649 218.72 600.405 215.424 593.476C212.094 586.476 210.405 581.146 209.961 577.31L198.041 578.689C198.703 584.419 201.017 591.124 204.587 598.63C208.191 606.206 213.241 614.938 219.676 624.796L229.725 618.237ZM209.961 577.31C208.06 560.877 206.075 525.266 209.027 487.508C212.001 449.473 219.904 410.542 236.903 386.46L227.099 379.54C208.098 406.458 200.06 448.247 197.063 486.573C194.045 525.175 196.06 561.565 198.041 578.689L209.961 577.31ZM236.903 386.46C254.756 361.167 266.036 351.054 275.674 346.179C280.473 343.751 285.118 342.494 290.49 341.441C295.621 340.435 302.274 339.492 309.36 337.844L306.642 326.156C299.681 327.775 294.31 328.464 288.183 329.665C282.296 330.818 276.447 332.34 270.258 335.471C257.919 341.712 245.245 353.832 227.099 379.54L236.903 386.46ZM313.752 333.711C325.12 295.501 350.791 271.289 390.69 258.254C430.99 245.087 485.718 243.395 554.343 250.964L555.659 239.036C486.484 231.406 429.712 232.881 386.963 246.847C343.812 260.945 314.882 287.832 302.25 330.289L313.752 333.711Z" fill="black"/></g></g>    </g><g id="notion-avatar-accessories">      <!--?xml version="1.0" encoding="UTF-8"?-->    <title>Accessories/ 0</title>    <g id="Accessories/-0" stroke="none" stroke-width="1" fill="none" fill-rule="evenodd"/>    </g><g id="notion-avatar-details">      <!--?xml version="1.0" encoding="UTF-8"?-->    <title>Details/ 0</title>    <g id="Details/-0" stroke="none" stroke-width="1" fill="none" fill-rule="evenodd"/>    </g><g id="notion-avatar-beard">      <!--?xml version="1.0" encoding="UTF-8"?-->    <title>Beard/ 0</title>    <g id="Beard/-0" stroke="none" stroke-width="1" fill="none" fill-rule="evenodd"/>    </g>      </g>      </svg>